<mxfile host="app.diagrams.net" agent="Mozilla/5.0 (Windows NT 10.0; Win64; x64) AppleWebKit/537.36 (KHTML, like Gecko) Chrome/131.0.0.0 Safari/537.36" version="24.8.6">
  <diagram name="หน้า-1" id="ege9BfNgvFnYgofZR1U3">
    <mxGraphModel dx="1050" dy="530" grid="1" gridSize="10" guides="1" tooltips="1" connect="1" arrows="1" fold="1" page="1" pageScale="1" pageWidth="827" pageHeight="1169" math="0" shadow="0">
      <root>
        <mxCell id="0" />
        <mxCell id="1" parent="0" />
        <mxCell id="91UHBMwtn5Rns8a0Lb2g-41" style="edgeStyle=orthogonalEdgeStyle;rounded=0;orthogonalLoop=1;jettySize=auto;html=1;exitX=0.5;exitY=1;exitDx=0;exitDy=0;entryX=0.5;entryY=0;entryDx=0;entryDy=0;" edge="1" parent="1" source="91UHBMwtn5Rns8a0Lb2g-1" target="91UHBMwtn5Rns8a0Lb2g-2">
          <mxGeometry relative="1" as="geometry" />
        </mxCell>
        <mxCell id="91UHBMwtn5Rns8a0Lb2g-1" value="start" style="ellipse;whiteSpace=wrap;html=1;" vertex="1" parent="1">
          <mxGeometry x="354" y="10" width="120" height="40" as="geometry" />
        </mxCell>
        <mxCell id="91UHBMwtn5Rns8a0Lb2g-42" style="edgeStyle=orthogonalEdgeStyle;rounded=0;orthogonalLoop=1;jettySize=auto;html=1;exitX=0.5;exitY=1;exitDx=0;exitDy=0;entryX=0.5;entryY=0;entryDx=0;entryDy=0;" edge="1" parent="1" source="91UHBMwtn5Rns8a0Lb2g-2" target="91UHBMwtn5Rns8a0Lb2g-3">
          <mxGeometry relative="1" as="geometry" />
        </mxCell>
        <mxCell id="91UHBMwtn5Rns8a0Lb2g-2" value="input a" style="shape=parallelogram;perimeter=parallelogramPerimeter;whiteSpace=wrap;html=1;fixedSize=1;" vertex="1" parent="1">
          <mxGeometry x="364" y="70" width="100" height="30" as="geometry" />
        </mxCell>
        <mxCell id="91UHBMwtn5Rns8a0Lb2g-43" style="edgeStyle=orthogonalEdgeStyle;rounded=0;orthogonalLoop=1;jettySize=auto;html=1;exitX=0.5;exitY=1;exitDx=0;exitDy=0;entryX=0.5;entryY=0;entryDx=0;entryDy=0;" edge="1" parent="1" source="91UHBMwtn5Rns8a0Lb2g-3" target="91UHBMwtn5Rns8a0Lb2g-9">
          <mxGeometry relative="1" as="geometry" />
        </mxCell>
        <mxCell id="91UHBMwtn5Rns8a0Lb2g-3" value="input b" style="shape=parallelogram;perimeter=parallelogramPerimeter;whiteSpace=wrap;html=1;fixedSize=1;" vertex="1" parent="1">
          <mxGeometry x="366" y="120" width="96" height="30" as="geometry" />
        </mxCell>
        <mxCell id="91UHBMwtn5Rns8a0Lb2g-45" style="edgeStyle=orthogonalEdgeStyle;rounded=0;orthogonalLoop=1;jettySize=auto;html=1;exitX=0.5;exitY=1;exitDx=0;exitDy=0;entryX=0.5;entryY=0;entryDx=0;entryDy=0;" edge="1" parent="1" source="91UHBMwtn5Rns8a0Lb2g-4" target="91UHBMwtn5Rns8a0Lb2g-7">
          <mxGeometry relative="1" as="geometry" />
        </mxCell>
        <mxCell id="91UHBMwtn5Rns8a0Lb2g-4" value="a + b" style="rounded=0;whiteSpace=wrap;html=1;" vertex="1" parent="1">
          <mxGeometry x="372.5" y="220" width="83" height="30" as="geometry" />
        </mxCell>
        <mxCell id="91UHBMwtn5Rns8a0Lb2g-47" style="edgeStyle=orthogonalEdgeStyle;rounded=0;orthogonalLoop=1;jettySize=auto;html=1;exitX=0.5;exitY=1;exitDx=0;exitDy=0;entryX=0.5;entryY=0;entryDx=0;entryDy=0;" edge="1" parent="1" source="91UHBMwtn5Rns8a0Lb2g-5" target="91UHBMwtn5Rns8a0Lb2g-8">
          <mxGeometry relative="1" as="geometry" />
        </mxCell>
        <mxCell id="91UHBMwtn5Rns8a0Lb2g-5" value="a - b" style="rounded=0;whiteSpace=wrap;html=1;" vertex="1" parent="1">
          <mxGeometry x="371" y="320" width="86" height="30" as="geometry" />
        </mxCell>
        <mxCell id="91UHBMwtn5Rns8a0Lb2g-46" style="edgeStyle=orthogonalEdgeStyle;rounded=0;orthogonalLoop=1;jettySize=auto;html=1;exitX=0.5;exitY=1;exitDx=0;exitDy=0;entryX=0.5;entryY=0;entryDx=0;entryDy=0;" edge="1" parent="1" source="91UHBMwtn5Rns8a0Lb2g-7" target="91UHBMwtn5Rns8a0Lb2g-5">
          <mxGeometry relative="1" as="geometry" />
        </mxCell>
        <mxCell id="91UHBMwtn5Rns8a0Lb2g-7" value="output a + b" style="shape=parallelogram;perimeter=parallelogramPerimeter;whiteSpace=wrap;html=1;fixedSize=1;" vertex="1" parent="1">
          <mxGeometry x="364" y="270" width="99" height="30" as="geometry" />
        </mxCell>
        <mxCell id="91UHBMwtn5Rns8a0Lb2g-48" style="edgeStyle=orthogonalEdgeStyle;rounded=0;orthogonalLoop=1;jettySize=auto;html=1;exitX=0.5;exitY=1;exitDx=0;exitDy=0;entryX=0.5;entryY=0;entryDx=0;entryDy=0;" edge="1" parent="1" source="91UHBMwtn5Rns8a0Lb2g-8" target="91UHBMwtn5Rns8a0Lb2g-10">
          <mxGeometry relative="1" as="geometry" />
        </mxCell>
        <mxCell id="91UHBMwtn5Rns8a0Lb2g-8" value="output a - b" style="shape=parallelogram;perimeter=parallelogramPerimeter;whiteSpace=wrap;html=1;fixedSize=1;" vertex="1" parent="1">
          <mxGeometry x="364" y="370" width="100" height="30" as="geometry" />
        </mxCell>
        <mxCell id="91UHBMwtn5Rns8a0Lb2g-44" style="edgeStyle=orthogonalEdgeStyle;rounded=0;orthogonalLoop=1;jettySize=auto;html=1;exitX=0.5;exitY=1;exitDx=0;exitDy=0;entryX=0.5;entryY=0;entryDx=0;entryDy=0;" edge="1" parent="1" source="91UHBMwtn5Rns8a0Lb2g-9" target="91UHBMwtn5Rns8a0Lb2g-4">
          <mxGeometry relative="1" as="geometry" />
        </mxCell>
        <mxCell id="91UHBMwtn5Rns8a0Lb2g-9" value="output a b" style="shape=parallelogram;perimeter=parallelogramPerimeter;whiteSpace=wrap;html=1;fixedSize=1;" vertex="1" parent="1">
          <mxGeometry x="364" y="170" width="100" height="30" as="geometry" />
        </mxCell>
        <mxCell id="91UHBMwtn5Rns8a0Lb2g-49" style="edgeStyle=orthogonalEdgeStyle;rounded=0;orthogonalLoop=1;jettySize=auto;html=1;exitX=0.5;exitY=1;exitDx=0;exitDy=0;entryX=0.5;entryY=0;entryDx=0;entryDy=0;" edge="1" parent="1" source="91UHBMwtn5Rns8a0Lb2g-10" target="91UHBMwtn5Rns8a0Lb2g-11">
          <mxGeometry relative="1" as="geometry" />
        </mxCell>
        <mxCell id="91UHBMwtn5Rns8a0Lb2g-10" value="a * b" style="rounded=0;whiteSpace=wrap;html=1;" vertex="1" parent="1">
          <mxGeometry x="374" y="420" width="80" height="30" as="geometry" />
        </mxCell>
        <mxCell id="91UHBMwtn5Rns8a0Lb2g-50" style="edgeStyle=orthogonalEdgeStyle;rounded=0;orthogonalLoop=1;jettySize=auto;html=1;exitX=0.5;exitY=1;exitDx=0;exitDy=0;entryX=0.5;entryY=0;entryDx=0;entryDy=0;" edge="1" parent="1" source="91UHBMwtn5Rns8a0Lb2g-11" target="91UHBMwtn5Rns8a0Lb2g-12">
          <mxGeometry relative="1" as="geometry" />
        </mxCell>
        <mxCell id="91UHBMwtn5Rns8a0Lb2g-11" value="output a * b" style="shape=parallelogram;perimeter=parallelogramPerimeter;whiteSpace=wrap;html=1;fixedSize=1;" vertex="1" parent="1">
          <mxGeometry x="361" y="470" width="106" height="30" as="geometry" />
        </mxCell>
        <mxCell id="91UHBMwtn5Rns8a0Lb2g-52" style="edgeStyle=orthogonalEdgeStyle;rounded=0;orthogonalLoop=1;jettySize=auto;html=1;exitX=0.5;exitY=1;exitDx=0;exitDy=0;entryX=0.5;entryY=0;entryDx=0;entryDy=0;" edge="1" parent="1" source="91UHBMwtn5Rns8a0Lb2g-12" target="91UHBMwtn5Rns8a0Lb2g-13">
          <mxGeometry relative="1" as="geometry" />
        </mxCell>
        <mxCell id="91UHBMwtn5Rns8a0Lb2g-12" value="output b must greater than 0" style="shape=parallelogram;perimeter=parallelogramPerimeter;whiteSpace=wrap;html=1;fixedSize=1;" vertex="1" parent="1">
          <mxGeometry x="359" y="520" width="109" height="30" as="geometry" />
        </mxCell>
        <mxCell id="91UHBMwtn5Rns8a0Lb2g-53" style="edgeStyle=orthogonalEdgeStyle;rounded=0;orthogonalLoop=1;jettySize=auto;html=1;exitX=0.5;exitY=1;exitDx=0;exitDy=0;entryX=0.5;entryY=0;entryDx=0;entryDy=0;" edge="1" parent="1" source="91UHBMwtn5Rns8a0Lb2g-13" target="91UHBMwtn5Rns8a0Lb2g-14">
          <mxGeometry relative="1" as="geometry" />
        </mxCell>
        <mxCell id="91UHBMwtn5Rns8a0Lb2g-13" value="a / b" style="rounded=0;whiteSpace=wrap;html=1;" vertex="1" parent="1">
          <mxGeometry x="371" y="569.5" width="86" height="30" as="geometry" />
        </mxCell>
        <mxCell id="91UHBMwtn5Rns8a0Lb2g-54" style="edgeStyle=orthogonalEdgeStyle;rounded=0;orthogonalLoop=1;jettySize=auto;html=1;exitX=0.5;exitY=1;exitDx=0;exitDy=0;entryX=0.5;entryY=0;entryDx=0;entryDy=0;" edge="1" parent="1" source="91UHBMwtn5Rns8a0Lb2g-14" target="91UHBMwtn5Rns8a0Lb2g-15">
          <mxGeometry relative="1" as="geometry" />
        </mxCell>
        <mxCell id="91UHBMwtn5Rns8a0Lb2g-14" value="output a / b" style="shape=parallelogram;perimeter=parallelogramPerimeter;whiteSpace=wrap;html=1;fixedSize=1;" vertex="1" parent="1">
          <mxGeometry x="361" y="620" width="106" height="30" as="geometry" />
        </mxCell>
        <mxCell id="91UHBMwtn5Rns8a0Lb2g-55" style="edgeStyle=orthogonalEdgeStyle;rounded=0;orthogonalLoop=1;jettySize=auto;html=1;exitX=0.5;exitY=1;exitDx=0;exitDy=0;entryX=0.5;entryY=0;entryDx=0;entryDy=0;" edge="1" parent="1" source="91UHBMwtn5Rns8a0Lb2g-15" target="91UHBMwtn5Rns8a0Lb2g-16">
          <mxGeometry relative="1" as="geometry" />
        </mxCell>
        <mxCell id="91UHBMwtn5Rns8a0Lb2g-15" value="a + 1" style="rounded=0;whiteSpace=wrap;html=1;" vertex="1" parent="1">
          <mxGeometry x="369.5" y="670" width="89" height="30" as="geometry" />
        </mxCell>
        <mxCell id="91UHBMwtn5Rns8a0Lb2g-56" style="edgeStyle=orthogonalEdgeStyle;rounded=0;orthogonalLoop=1;jettySize=auto;html=1;exitX=0.5;exitY=1;exitDx=0;exitDy=0;entryX=0.5;entryY=0;entryDx=0;entryDy=0;" edge="1" parent="1" source="91UHBMwtn5Rns8a0Lb2g-16" target="91UHBMwtn5Rns8a0Lb2g-17">
          <mxGeometry relative="1" as="geometry" />
        </mxCell>
        <mxCell id="91UHBMwtn5Rns8a0Lb2g-16" value="output a + 1" style="shape=parallelogram;perimeter=parallelogramPerimeter;whiteSpace=wrap;html=1;fixedSize=1;" vertex="1" parent="1">
          <mxGeometry x="362" y="720" width="104" height="30" as="geometry" />
        </mxCell>
        <mxCell id="91UHBMwtn5Rns8a0Lb2g-57" style="edgeStyle=orthogonalEdgeStyle;rounded=0;orthogonalLoop=1;jettySize=auto;html=1;exitX=0.5;exitY=1;exitDx=0;exitDy=0;entryX=0.5;entryY=0;entryDx=0;entryDy=0;" edge="1" parent="1" source="91UHBMwtn5Rns8a0Lb2g-17" target="91UHBMwtn5Rns8a0Lb2g-18">
          <mxGeometry relative="1" as="geometry" />
        </mxCell>
        <mxCell id="91UHBMwtn5Rns8a0Lb2g-17" value="a - 1" style="rounded=0;whiteSpace=wrap;html=1;" vertex="1" parent="1">
          <mxGeometry x="369" y="770" width="90" height="30" as="geometry" />
        </mxCell>
        <mxCell id="91UHBMwtn5Rns8a0Lb2g-58" style="edgeStyle=orthogonalEdgeStyle;rounded=0;orthogonalLoop=1;jettySize=auto;html=1;exitX=0.5;exitY=1;exitDx=0;exitDy=0;entryX=0.5;entryY=0;entryDx=0;entryDy=0;" edge="1" parent="1" source="91UHBMwtn5Rns8a0Lb2g-18" target="91UHBMwtn5Rns8a0Lb2g-19">
          <mxGeometry relative="1" as="geometry" />
        </mxCell>
        <mxCell id="91UHBMwtn5Rns8a0Lb2g-18" value="output a - 1" style="shape=parallelogram;perimeter=parallelogramPerimeter;whiteSpace=wrap;html=1;fixedSize=1;" vertex="1" parent="1">
          <mxGeometry x="362" y="820" width="104" height="30" as="geometry" />
        </mxCell>
        <mxCell id="91UHBMwtn5Rns8a0Lb2g-59" style="edgeStyle=orthogonalEdgeStyle;rounded=0;orthogonalLoop=1;jettySize=auto;html=1;exitX=0.5;exitY=1;exitDx=0;exitDy=0;entryX=0.5;entryY=0;entryDx=0;entryDy=0;" edge="1" parent="1" source="91UHBMwtn5Rns8a0Lb2g-19" target="91UHBMwtn5Rns8a0Lb2g-20">
          <mxGeometry relative="1" as="geometry" />
        </mxCell>
        <mxCell id="91UHBMwtn5Rns8a0Lb2g-19" value="a + 1" style="rounded=0;whiteSpace=wrap;html=1;" vertex="1" parent="1">
          <mxGeometry x="369.5" y="870" width="89" height="30" as="geometry" />
        </mxCell>
        <mxCell id="91UHBMwtn5Rns8a0Lb2g-60" style="edgeStyle=orthogonalEdgeStyle;rounded=0;orthogonalLoop=1;jettySize=auto;html=1;exitX=0.5;exitY=1;exitDx=0;exitDy=0;entryX=0.5;entryY=0;entryDx=0;entryDy=0;" edge="1" parent="1" source="91UHBMwtn5Rns8a0Lb2g-20" target="91UHBMwtn5Rns8a0Lb2g-22">
          <mxGeometry relative="1" as="geometry" />
        </mxCell>
        <mxCell id="91UHBMwtn5Rns8a0Lb2g-20" value="output a + 1" style="shape=parallelogram;perimeter=parallelogramPerimeter;whiteSpace=wrap;html=1;fixedSize=1;" vertex="1" parent="1">
          <mxGeometry x="362" y="920" width="104" height="30" as="geometry" />
        </mxCell>
        <mxCell id="91UHBMwtn5Rns8a0Lb2g-61" style="edgeStyle=orthogonalEdgeStyle;rounded=0;orthogonalLoop=1;jettySize=auto;html=1;exitX=0.5;exitY=1;exitDx=0;exitDy=0;entryX=0.5;entryY=0;entryDx=0;entryDy=0;" edge="1" parent="1" source="91UHBMwtn5Rns8a0Lb2g-22" target="91UHBMwtn5Rns8a0Lb2g-23">
          <mxGeometry relative="1" as="geometry" />
        </mxCell>
        <mxCell id="91UHBMwtn5Rns8a0Lb2g-22" value="a + b" style="rounded=0;whiteSpace=wrap;html=1;" vertex="1" parent="1">
          <mxGeometry x="372.5" y="970" width="83" height="30" as="geometry" />
        </mxCell>
        <mxCell id="91UHBMwtn5Rns8a0Lb2g-62" style="edgeStyle=orthogonalEdgeStyle;rounded=0;orthogonalLoop=1;jettySize=auto;html=1;exitX=0.5;exitY=1;exitDx=0;exitDy=0;entryX=0.5;entryY=0;entryDx=0;entryDy=0;" edge="1" parent="1" source="91UHBMwtn5Rns8a0Lb2g-23" target="91UHBMwtn5Rns8a0Lb2g-24">
          <mxGeometry relative="1" as="geometry" />
        </mxCell>
        <mxCell id="91UHBMwtn5Rns8a0Lb2g-23" value="output a + b" style="shape=parallelogram;perimeter=parallelogramPerimeter;whiteSpace=wrap;html=1;fixedSize=1;" vertex="1" parent="1">
          <mxGeometry x="364" y="1020" width="99" height="30" as="geometry" />
        </mxCell>
        <mxCell id="91UHBMwtn5Rns8a0Lb2g-63" style="edgeStyle=orthogonalEdgeStyle;rounded=0;orthogonalLoop=1;jettySize=auto;html=1;exitX=0.5;exitY=1;exitDx=0;exitDy=0;entryX=0.5;entryY=0;entryDx=0;entryDy=0;" edge="1" parent="1" source="91UHBMwtn5Rns8a0Lb2g-24" target="91UHBMwtn5Rns8a0Lb2g-25">
          <mxGeometry relative="1" as="geometry" />
        </mxCell>
        <mxCell id="91UHBMwtn5Rns8a0Lb2g-24" value="a - 1" style="rounded=0;whiteSpace=wrap;html=1;" vertex="1" parent="1">
          <mxGeometry x="369" y="1070" width="90" height="30" as="geometry" />
        </mxCell>
        <mxCell id="91UHBMwtn5Rns8a0Lb2g-64" style="edgeStyle=orthogonalEdgeStyle;rounded=0;orthogonalLoop=1;jettySize=auto;html=1;exitX=0.5;exitY=1;exitDx=0;exitDy=0;entryX=0.5;entryY=0;entryDx=0;entryDy=0;" edge="1" parent="1" source="91UHBMwtn5Rns8a0Lb2g-25" target="91UHBMwtn5Rns8a0Lb2g-26">
          <mxGeometry relative="1" as="geometry" />
        </mxCell>
        <mxCell id="91UHBMwtn5Rns8a0Lb2g-25" value="output a - 1" style="shape=parallelogram;perimeter=parallelogramPerimeter;whiteSpace=wrap;html=1;fixedSize=1;" vertex="1" parent="1">
          <mxGeometry x="362" y="1120" width="104" height="30" as="geometry" />
        </mxCell>
        <mxCell id="91UHBMwtn5Rns8a0Lb2g-65" style="edgeStyle=orthogonalEdgeStyle;rounded=0;orthogonalLoop=1;jettySize=auto;html=1;exitX=0.5;exitY=1;exitDx=0;exitDy=0;entryX=0.5;entryY=0;entryDx=0;entryDy=0;" edge="1" parent="1" source="91UHBMwtn5Rns8a0Lb2g-26" target="91UHBMwtn5Rns8a0Lb2g-27">
          <mxGeometry relative="1" as="geometry" />
        </mxCell>
        <mxCell id="91UHBMwtn5Rns8a0Lb2g-26" value="a - b" style="rounded=0;whiteSpace=wrap;html=1;" vertex="1" parent="1">
          <mxGeometry x="371" y="1169" width="86" height="30" as="geometry" />
        </mxCell>
        <mxCell id="91UHBMwtn5Rns8a0Lb2g-66" style="edgeStyle=orthogonalEdgeStyle;rounded=0;orthogonalLoop=1;jettySize=auto;html=1;exitX=0.5;exitY=1;exitDx=0;exitDy=0;entryX=0.5;entryY=0;entryDx=0;entryDy=0;" edge="1" parent="1" source="91UHBMwtn5Rns8a0Lb2g-27" target="91UHBMwtn5Rns8a0Lb2g-28">
          <mxGeometry relative="1" as="geometry" />
        </mxCell>
        <mxCell id="91UHBMwtn5Rns8a0Lb2g-27" value="output a - b" style="shape=parallelogram;perimeter=parallelogramPerimeter;whiteSpace=wrap;html=1;fixedSize=1;" vertex="1" parent="1">
          <mxGeometry x="364" y="1219" width="100" height="30" as="geometry" />
        </mxCell>
        <mxCell id="91UHBMwtn5Rns8a0Lb2g-67" style="edgeStyle=orthogonalEdgeStyle;rounded=0;orthogonalLoop=1;jettySize=auto;html=1;exitX=0.5;exitY=1;exitDx=0;exitDy=0;entryX=0.5;entryY=0;entryDx=0;entryDy=0;" edge="1" parent="1" source="91UHBMwtn5Rns8a0Lb2g-28" target="91UHBMwtn5Rns8a0Lb2g-29">
          <mxGeometry relative="1" as="geometry" />
        </mxCell>
        <mxCell id="91UHBMwtn5Rns8a0Lb2g-28" value="a * 1" style="rounded=0;whiteSpace=wrap;html=1;" vertex="1" parent="1">
          <mxGeometry x="369" y="1270" width="90" height="30" as="geometry" />
        </mxCell>
        <mxCell id="91UHBMwtn5Rns8a0Lb2g-68" style="edgeStyle=orthogonalEdgeStyle;rounded=0;orthogonalLoop=1;jettySize=auto;html=1;exitX=0.5;exitY=1;exitDx=0;exitDy=0;entryX=0.5;entryY=0;entryDx=0;entryDy=0;" edge="1" parent="1" source="91UHBMwtn5Rns8a0Lb2g-29" target="91UHBMwtn5Rns8a0Lb2g-30">
          <mxGeometry relative="1" as="geometry" />
        </mxCell>
        <mxCell id="91UHBMwtn5Rns8a0Lb2g-29" value="output a * 1" style="shape=parallelogram;perimeter=parallelogramPerimeter;whiteSpace=wrap;html=1;fixedSize=1;" vertex="1" parent="1">
          <mxGeometry x="362" y="1320" width="104" height="30" as="geometry" />
        </mxCell>
        <mxCell id="91UHBMwtn5Rns8a0Lb2g-69" style="edgeStyle=orthogonalEdgeStyle;rounded=0;orthogonalLoop=1;jettySize=auto;html=1;exitX=0.5;exitY=1;exitDx=0;exitDy=0;entryX=0.5;entryY=0;entryDx=0;entryDy=0;" edge="1" parent="1" source="91UHBMwtn5Rns8a0Lb2g-30" target="91UHBMwtn5Rns8a0Lb2g-31">
          <mxGeometry relative="1" as="geometry" />
        </mxCell>
        <mxCell id="91UHBMwtn5Rns8a0Lb2g-30" value="a * b" style="rounded=0;whiteSpace=wrap;html=1;" vertex="1" parent="1">
          <mxGeometry x="374" y="1370" width="80" height="30" as="geometry" />
        </mxCell>
        <mxCell id="91UHBMwtn5Rns8a0Lb2g-70" style="edgeStyle=orthogonalEdgeStyle;rounded=0;orthogonalLoop=1;jettySize=auto;html=1;exitX=0.5;exitY=1;exitDx=0;exitDy=0;entryX=0.5;entryY=0;entryDx=0;entryDy=0;" edge="1" parent="1" source="91UHBMwtn5Rns8a0Lb2g-31" target="91UHBMwtn5Rns8a0Lb2g-32">
          <mxGeometry relative="1" as="geometry" />
        </mxCell>
        <mxCell id="91UHBMwtn5Rns8a0Lb2g-31" value="output a * b" style="shape=parallelogram;perimeter=parallelogramPerimeter;whiteSpace=wrap;html=1;fixedSize=1;" vertex="1" parent="1">
          <mxGeometry x="361" y="1420" width="106" height="30" as="geometry" />
        </mxCell>
        <mxCell id="91UHBMwtn5Rns8a0Lb2g-71" style="edgeStyle=orthogonalEdgeStyle;rounded=0;orthogonalLoop=1;jettySize=auto;html=1;exitX=0.5;exitY=1;exitDx=0;exitDy=0;entryX=0.5;entryY=0;entryDx=0;entryDy=0;" edge="1" parent="1" source="91UHBMwtn5Rns8a0Lb2g-32" target="91UHBMwtn5Rns8a0Lb2g-33">
          <mxGeometry relative="1" as="geometry" />
        </mxCell>
        <mxCell id="91UHBMwtn5Rns8a0Lb2g-32" value="a / 1" style="rounded=0;whiteSpace=wrap;html=1;" vertex="1" parent="1">
          <mxGeometry x="371" y="1470" width="86" height="30" as="geometry" />
        </mxCell>
        <mxCell id="91UHBMwtn5Rns8a0Lb2g-72" style="edgeStyle=orthogonalEdgeStyle;rounded=0;orthogonalLoop=1;jettySize=auto;html=1;exitX=0.5;exitY=1;exitDx=0;exitDy=0;entryX=0.5;entryY=0;entryDx=0;entryDy=0;" edge="1" parent="1" source="91UHBMwtn5Rns8a0Lb2g-33" target="91UHBMwtn5Rns8a0Lb2g-34">
          <mxGeometry relative="1" as="geometry" />
        </mxCell>
        <mxCell id="91UHBMwtn5Rns8a0Lb2g-33" value="output a / 1" style="shape=parallelogram;perimeter=parallelogramPerimeter;whiteSpace=wrap;html=1;fixedSize=1;" vertex="1" parent="1">
          <mxGeometry x="361" y="1520" width="106" height="30" as="geometry" />
        </mxCell>
        <mxCell id="91UHBMwtn5Rns8a0Lb2g-75" style="edgeStyle=orthogonalEdgeStyle;rounded=0;orthogonalLoop=1;jettySize=auto;html=1;exitX=0.5;exitY=1;exitDx=0;exitDy=0;entryX=0.5;entryY=0;entryDx=0;entryDy=0;" edge="1" parent="1" source="91UHBMwtn5Rns8a0Lb2g-34" target="91UHBMwtn5Rns8a0Lb2g-35">
          <mxGeometry relative="1" as="geometry" />
        </mxCell>
        <mxCell id="91UHBMwtn5Rns8a0Lb2g-34" value="a / b" style="rounded=0;whiteSpace=wrap;html=1;" vertex="1" parent="1">
          <mxGeometry x="371" y="1570" width="86" height="30" as="geometry" />
        </mxCell>
        <mxCell id="91UHBMwtn5Rns8a0Lb2g-76" style="edgeStyle=orthogonalEdgeStyle;rounded=0;orthogonalLoop=1;jettySize=auto;html=1;exitX=0.5;exitY=1;exitDx=0;exitDy=0;entryX=0.5;entryY=0;entryDx=0;entryDy=0;" edge="1" parent="1" source="91UHBMwtn5Rns8a0Lb2g-35" target="91UHBMwtn5Rns8a0Lb2g-36">
          <mxGeometry relative="1" as="geometry" />
        </mxCell>
        <mxCell id="91UHBMwtn5Rns8a0Lb2g-35" value="output a / b" style="shape=parallelogram;perimeter=parallelogramPerimeter;whiteSpace=wrap;html=1;fixedSize=1;" vertex="1" parent="1">
          <mxGeometry x="361" y="1620.5" width="106" height="30" as="geometry" />
        </mxCell>
        <mxCell id="91UHBMwtn5Rns8a0Lb2g-77" style="edgeStyle=orthogonalEdgeStyle;rounded=0;orthogonalLoop=1;jettySize=auto;html=1;exitX=0.5;exitY=1;exitDx=0;exitDy=0;entryX=0.5;entryY=0;entryDx=0;entryDy=0;" edge="1" parent="1" source="91UHBMwtn5Rns8a0Lb2g-36" target="91UHBMwtn5Rns8a0Lb2g-37">
          <mxGeometry relative="1" as="geometry" />
        </mxCell>
        <mxCell id="91UHBMwtn5Rns8a0Lb2g-36" value="a &amp;amp;&amp;amp; b" style="rounded=0;whiteSpace=wrap;html=1;" vertex="1" parent="1">
          <mxGeometry x="371" y="1670" width="86" height="30" as="geometry" />
        </mxCell>
        <mxCell id="91UHBMwtn5Rns8a0Lb2g-78" style="edgeStyle=orthogonalEdgeStyle;rounded=0;orthogonalLoop=1;jettySize=auto;html=1;exitX=0.5;exitY=1;exitDx=0;exitDy=0;entryX=0.5;entryY=0;entryDx=0;entryDy=0;" edge="1" parent="1" source="91UHBMwtn5Rns8a0Lb2g-37" target="91UHBMwtn5Rns8a0Lb2g-38">
          <mxGeometry relative="1" as="geometry" />
        </mxCell>
        <mxCell id="91UHBMwtn5Rns8a0Lb2g-37" value="output a &amp;amp;&amp;amp; b" style="shape=parallelogram;perimeter=parallelogramPerimeter;whiteSpace=wrap;html=1;fixedSize=1;" vertex="1" parent="1">
          <mxGeometry x="361" y="1723.5" width="106" height="30" as="geometry" />
        </mxCell>
        <mxCell id="91UHBMwtn5Rns8a0Lb2g-79" style="edgeStyle=orthogonalEdgeStyle;rounded=0;orthogonalLoop=1;jettySize=auto;html=1;exitX=0.5;exitY=1;exitDx=0;exitDy=0;entryX=0.5;entryY=0;entryDx=0;entryDy=0;" edge="1" parent="1" source="91UHBMwtn5Rns8a0Lb2g-38" target="91UHBMwtn5Rns8a0Lb2g-39">
          <mxGeometry relative="1" as="geometry" />
        </mxCell>
        <mxCell id="91UHBMwtn5Rns8a0Lb2g-38" value="a || b" style="rounded=0;whiteSpace=wrap;html=1;" vertex="1" parent="1">
          <mxGeometry x="371" y="1770" width="86" height="30" as="geometry" />
        </mxCell>
        <mxCell id="91UHBMwtn5Rns8a0Lb2g-80" style="edgeStyle=orthogonalEdgeStyle;rounded=0;orthogonalLoop=1;jettySize=auto;html=1;exitX=0.5;exitY=1;exitDx=0;exitDy=0;entryX=0.5;entryY=0;entryDx=0;entryDy=0;" edge="1" parent="1" source="91UHBMwtn5Rns8a0Lb2g-39" target="91UHBMwtn5Rns8a0Lb2g-40">
          <mxGeometry relative="1" as="geometry" />
        </mxCell>
        <mxCell id="91UHBMwtn5Rns8a0Lb2g-39" value="output a || b" style="shape=parallelogram;perimeter=parallelogramPerimeter;whiteSpace=wrap;html=1;fixedSize=1;" vertex="1" parent="1">
          <mxGeometry x="361" y="1820" width="106" height="30" as="geometry" />
        </mxCell>
        <mxCell id="91UHBMwtn5Rns8a0Lb2g-40" value="end" style="ellipse;whiteSpace=wrap;html=1;" vertex="1" parent="1">
          <mxGeometry x="354" y="1870" width="120" height="40" as="geometry" />
        </mxCell>
      </root>
    </mxGraphModel>
  </diagram>
</mxfile>
